<svg width="512" height="512" viewBox="0 0 135.467 135.467" xmlns="http://www.w3.org/2000/svg">
  <g fill="#0290ff">
    <path
      d="M31.015 18.931c.522 1.098 1.032 2.197 1.565 3.295 7.056 14.556 14.123 29.102 21.18 43.658.155.31.31.421.665.421 12.326-.01 24.653-.01 36.979 0 .322 0 .488-.11.643-.377 6.813-12.07 13.625-24.12 20.437-36.18.055-.088.1-.177.177-.3.111.056.222.112.322.167 2.93 1.576 5.847 3.151 8.776 4.715.11.056.222.1.333.156v.066c-.866 1.52-1.73 3.04-2.596 4.571L101.389 71.21c-1.764 3.129-4.449 4.937-7.977 5.503-.588.089-1.198.111-1.786.111-13.17.011-26.328.011-39.497 0-.355 0-.544.111-.71.422-1.476 2.651-2.985 5.28-4.46 7.921-.167.3-.289.677-.289 1.021.011.577.577 1.087 1.165 1.143.177.01.355.01.521.01h62.064v10.53H45.816c-4.771 0-8.92-2.918-10.352-7.312-.92-2.829-.676-5.591.788-8.187 2.374-4.239 4.77-8.466 7.167-12.693.111-.2.122-.355.022-.566a43057.972 43057.972 0 01-19.127-39.364c-.1-.21-.21-.3-.466-.3-3.495.012-6.978.012-10.473.012V18.93h17.64zM44.84 124.198c-.655-.122-1.332-.19-1.964-.389-4.25-1.298-6.968-4.094-7.733-8.498-.81-4.682 1.675-9.142 5.99-11.162 6.025-2.818 13.237.444 15.012 6.79 1.387 4.938-1.165 10.185-5.991 12.327a10.845 10.845 0 01-3.34.876c-.077.011-.155.033-.244.056h-1.73zM98.793 124.198c-.666-.122-1.343-.211-1.997-.378-4.094-1.076-7.234-4.604-7.777-8.72-.61-4.571 1.808-8.954 6.024-10.928 6.069-2.852 13.325.454 15.055 6.867 1.32 4.86-1.176 10.008-5.89 12.171-1.11.51-2.264.821-3.473.943-.067.011-.134.033-.211.056-.566-.011-1.143-.011-1.731-.011z" />
  </g>
  <path
    d="M75.686 8.694l19.783 34.267L67.793 58.94a4.565 4.565 0 11-4.566-7.908l25.041-14.457-18.262-31.63-26.359 15.218c-2.899 1.674-3.902 5.416-2.228 8.315l18.262 31.63c1.674 2.9 5.416 3.903 8.316 2.229l31.63-18.262L78.322 7.173zm-9.619 44.213L89.79 39.211l1.522 2.636-23.723 13.696z"
    fill="#520" />
</svg>